<?xml version="1.0" encoding="UTF-8" standalone="no"?>
<svg
   xmlns:dc="http://purl.org/dc/elements/1.1/"
   xmlns:cc="http://creativecommons.org/ns#"
   xmlns:rdf="http://www.w3.org/1999/02/22-rdf-syntax-ns#"
   xmlns:svg="http://www.w3.org/2000/svg"
   xmlns="http://www.w3.org/2000/svg"
   viewBox="0 0 1121.3333 793.33331"
   height="793.33331"
   width="1121.3333"
   xml:space="preserve"
   id="svg2"
   version="1.1"><metadata
     id="metadata8"><rdf:RDF><cc:Work
         rdf:about=""><dc:format>image/svg+xml</dc:format><dc:type
           rdf:resource="http://purl.org/dc/dcmitype/StillImage" /></cc:Work></rdf:RDF></metadata><defs
     id="defs6" /><g
     transform="matrix(1.3333333,0,0,-1.3333333,0,793.33333)"
     id="g10"><g
       transform="translate(-1692,-1584)"
       id="g12"><path
         id="path14"
         style="fill:#fdd605;fill-opacity:1;fill-rule:nonzero;stroke:none"
         d="m 1879.5238,1888.7026 c -0.9863,-0.9845 -2.2533,-1.5281 -3.5695,-1.5281 -1.4769,0 -2.8884,0.6921 -3.8731,1.9021 -0.051,0.065 -5.354,6.695 -8.858,15.2195 -3.568,8.6782 -4.4154,16.3751 -4.4494,16.6932 -0.1468,1.5314 0.2877,2.9428 1.2286,3.9737 0.9354,1.0341 2.3002,1.6037 3.8386,1.6037 h 53.5453 z m 46.6831,-24.5012 c 0,-1.4554 -0.4899,-2.7151 -1.4125,-3.6421 -0.8963,-0.8953 -2.1469,-1.3887 -3.5228,-1.3887 -0.1965,0 -0.3984,0.01 -0.597,0.032 -0.081,0.01 -8.3722,0.8892 -17.0162,4.4976 -8.6179,3.5945 -14.7026,8.4569 -14.9524,8.6576 -1.186,0.9785 -1.8763,2.286 -1.9429,3.6819 -0.065,1.3927 0.495,2.7589 1.5811,3.846 l 37.8627,37.86 v -53.5439 z m 49.9671,8.2402 c -0.064,-0.053 -6.5135,-5.2803 -15.2207,-8.8574 -8.3076,-3.4166 -15.8686,-4.3555 -16.6931,-4.45 -0.1938,-0.018 -0.3877,-0.028 -0.5754,-0.028 -2.8536,0 -5.0036,2.1895 -5.0036,5.0948 v 53.5439 l 37.8697,-37.86 c 1.0778,-1.081 1.6341,-2.4364 1.5671,-3.8135 -0.074,-1.3819 -0.7644,-2.6699 -1.944,-3.6302 z m 29.8728,48.5966 c -0.01,-0.08 -0.8691,-8.3237 -4.4979,-17.0207 -3.7023,-8.8747 -8.61,-14.8885 -8.6586,-14.9491 -1.0374,-1.2585 -2.424,-1.9508 -3.9008,-1.9508 -0.93,0 -2.3125,0.2742 -3.625,1.585 l -37.8642,37.8641 h 53.547 c 1.5277,0 2.8777,-0.5644 3.8046,-1.5881 0.9266,-1.0226 1.35,-2.4198 1.1949,-3.9404 z m -107.9558,-81.909 c -0.036,0.018 -0.069,0.04 -0.1046,0.057 -0.3451,0.1615 -0.6989,0.2832 -1.0562,0.3767 -35.5559,13.5958 -61.599,46.9916 -64.0787,87.004 h 14.1348 c -0.6392,-2.2032 -0.8501,-4.485 -0.6264,-6.777 0.01,-0.094 0.9198,-9.521 5.3271,-20.2375 4.2429,-10.3219 10.4481,-18.0184 10.7102,-18.3429 3.0455,-3.7338 7.2966,-6.0297 11.9741,-6.4642 0.4116,-4.6888 2.6859,-8.9551 6.4011,-12.0127 0.072,-0.06 7.3821,-6.0821 18.0787,-10.5464 10.0574,-4.1952 19.4996,-5.2824 20.5483,-5.3928 0.6475,-0.062 1.2839,-0.094 1.8888,-0.094 4.1597,0 8.0109,1.3723 11.1355,3.9668 v 0 c 3.0999,-2.5997 7.0911,-4.0318 11.2408,-4.0318 0.5644,0 1.1643,0.029 1.7926,0.087 0.3897,0.039 9.6684,0.9836 20.2335,5.3282 10.2723,4.2225 18.0155,10.4481 18.3453,10.7141 3.7335,3.0371 6.0254,7.2861 6.4558,11.9667 4.6945,0.4192 8.965,2.6951 12.0194,6.4071 0.2487,0.298 6.1026,7.4307 10.5454,18.0773 4.2879,10.2741 5.3504,20.1328 5.3932,20.5484 0.2387,2.3028 0.034,4.5922 -0.6008,6.8057 h 14.1854 c -3.2503,-52.4588 -46.9956,-93.5508 -99.5929,-93.5508 -12.0428,0 -23.6172,2.1599 -34.3524,6.1107 z m 146.6124,93.6742 c 0,3.4385 -2.7963,6.2365 -6.2368,6.2365 h -212.045 c -3.4387,0 -6.2367,-2.798 -6.2367,-6.2365 0,-45.7065 27.4595,-85.1153 66.7468,-102.6089 l -6.3467,-13.5764 c -0.6228,-1.3338 -0.3055,-2.9722 0.8708,-3.9681 1.4117,-1.1887 3.5169,-1.0099 4.7071,0.3988 l 11.0956,13.1504 c 4.6963,-1.554 9.5294,-2.8056 14.475,-3.7312 l -23.8881,-41.7762 c -0.8264,-1.4589 -0.4407,-3.3509 0.9566,-4.3455 1.489,-1.0619 3.5607,-0.7137 4.622,0.7783 l 31.1165,43.7027 c 2.6098,-0.1825 5.2449,-0.2818 7.9029,-0.2818 4.4262,0 8.7921,0.2656 13.0868,0.7671 l -48.49,-80.4491 c -0.8982,-1.4972 -0.4829,-3.4595 0.9782,-4.4511 1.5145,-1.0262 3.5724,-0.6314 4.6008,0.881 l 59.0689,87.1234 c 10.1941,2.7539 19.8231,6.9066 28.6565,12.2468 l -81.5807,-131.6077 c -0.9375,-1.5166 -0.5072,-3.5184 0.9906,-4.5071 1.5273,-1.008 3.5807,-0.5867 4.5881,0.9402 l 110.2004,166.9981 c 0.027,0.04 0.069,0.1054 0.095,0.1469 0.157,0.251 0.2853,0.5107 0.3999,0.7735 12.3989,18.0522 19.6659,39.8893 19.6659,63.3959 z" /><path
         id="path16"
         style="fill:#231f20;fill-opacity:1;fill-rule:evenodd;stroke:none"
         d="m 2039.7305,1989.2514 -3.9991,-20.078 4.533,-0.6228 z m -5.8675,8.919 12.5954,-8.7718 -0.5192,-4.6539 -2.0589,1.3495 1.5399,-34.1531 2.8896,-0.4151 -0.104,-4.2217 -10.6232,0.1039 0.104,4.8444 2.4741,-0.1038 -0.2075,10.7269 -5.0521,0.3113 -1.6437,-10.3117 2.5778,-0.2075 -0.3116,-5.3635 -10.8305,-0.1039 0.2944,5.7789 h 2.3873 l 8.0452,38.1669 -2.6819,1.557 z m -20.3121,2.5781 -1.5571,-19.1006 c 2.059,0 5.8826,-0.087 7.1282,8.6678 1.2455,8.7547 -5.5711,10.4328 -5.5711,10.4328 z m -8.2529,11.2458 c 0,0 19.7065,-3.8235 19.1873,-17.9587 -0.5189,-14.1354 -4.3252,-17.5266 -5.8822,-18.3569 l 2.1626,-22.5957 2.4744,-0.3114 -0.623,-5.3634 -6.177,-0.1039 -2.7855,27.0248 -2.6815,0.3115 -1.8684,-20.7443 h 3.0969 l -0.9343,-6.7995 -12.0592,-0.1038 0.9171,7.3185 h 3.5121 l 4.1347,49.3261 -3.408,0.6059 z m -23.3958,7.0071 20.2988,-5.7785 -2.0758,-19.0835 -4.6367,0.9342 0.5189,11.6441 -5.2596,1.0377 -1.4533,-21.9727 4.031,-0.6228 -0.8303,-6.7996 h -3.5122 l -1.7475,-23.2185 h 4.9483 l 1.1417,12.3877 4.3256,-0.4152 -1.5401,-20.0175 h -19.0835 l 0.7098,8.045 2.8891,-0.4152 3.9274,54.7766 -3.0967,0.7265 z m -37.6951,4.8446 13.8409,-0.8133 1.8512,-40.0356 5.6751,39.4126 12.6818,-2.5777 v -9.0833 l -3.5989,0.4152 -2.6815,-55.8143 2.8723,-0.2078 -0.2946,-7.9414 -11.6609,-0.3113 -0.1037,8.0452 3.2003,0.1039 2.7975,57.4985 -9.7178,-65.634 -5.7666,66.7589 -1.5519,-58.1045 2.9931,-0.3114 -0.1038,-8.5641 h -10.9347 v 8.7717 l 2.7855,0.1038 1.0211,58.8076 -3.4952,-0.1038 z m -18.571,-39.3673 c 0,-16.6982 1.8241,-30.2341 4.0743,-30.2341 2.2504,0 4.0745,13.5359 4.0745,30.2341 0,16.698 -1.8241,30.2341 -4.0745,30.2341 -2.2502,0 -4.0743,-13.5361 -4.0743,-30.2341 z m -7.4159,0.7936 c 0,22.1064 5.2401,40.0268 11.7044,40.0268 6.4641,0 11.7044,-17.9204 11.7044,-40.0268 0,-22.1066 -5.2403,-40.027 -11.7044,-40.027 -6.4643,0 -11.7044,17.9204 -11.7044,40.027 z m -20.6407,7.5177 -3.7026,-0.502 -2.2836,26.9211 c 0,0 14.5674,3.2006 24.0489,3.3045 l 1.1248,-27.44 -4.4293,-0.4153 -0.9342,19.81 -4.0141,-0.4151 2.3702,-59.3266 h 3.2008 l 0.4153,-7.7336 -12.284,-0.4153 -0.1038,8.0453 h 3.097 l -3.4083,58.3922 -3.8235,-0.8133 z m -34.7587,17.9587 8.7719,3.3045 12.8897,-44.0495 -3.8236,38.3747 -2.9932,-0.7266 -0.6057,8.2528 11.246,2.4741 0.398,-8.9624 -2.2664,-0.2076 4.2386,-63.15 -4.1348,-0.1038 -14.3429,50.3472 4.1348,-43.4268 2.5781,0.104 0.4153,-6.8168 -10.4156,-0.2076 v 6.8167 h 2.7855 l -5.173,51.0737 -3.3912,-0.5191 z m -14.3344,-12.5749 1.1163,-25.9036 4.3426,1.4363 z m -7.3439,2.4708 c 0,0 12.3704,6.6957 14.0314,6.7996 l 0.3149,0.021 c 0,0 9e-4,0 0,0 l 0.3078,-6.9243 -2.7855,-1.3492 10.0123,-46.5001 2.4792,0.1839 0.8134,-6.8166 -11.214,-0.3748 -0.3263,6.361 2.474,0.3115 -2.8892,14.0315 -4.5501,-1.3494 -0.1054,-13.0871 2.9948,0.087 v -6.3949 l -11.3499,-0.5019 0.695,6.1134 1.9868,0.271 0.1037,43.8588 -2.7855,-0.934 -0.2074,6.1938 z m -13.3049,-9.2909 -0.2075,1.0381 4.1347,2.8893 1.8515,-14.758 -4.3256,-1.9552 c 0,0 -0.3115,11.1421 -3.8235,7.7338 -3.5122,-3.4082 -1.6439,-8.4604 1.038,-11.5572 2.6818,-3.0971 10.3118,-7.232 11.0385,-20.1215 0.7264,-12.8898 -9.8967,-11.1421 -11.0385,-8.4605 l -0.5189,-1.2286 -4.7407,-0.1039 -0.5191,13.9278 4.2217,0.519 c 0,0 -0.8134,-10.3287 4.1349,-9.6022 4.9483,0.7266 2.9065,6.7997 0.6228,10.7268 -2.2837,3.9274 -10.6917,11.6049 -10.3288,20.018 0.2964,6.8734 3.3913,11.5574 7.9415,10.8307 l 0.6228,-0.3116 z m 198.4971,34.3644 -7.6327,3.5592 -1.4893,-3.1939 7.6327,-3.559 z m -20.2475,8.959 c 0.5138,1.3385 0.977,2.4614 1.3894,3.3691 0.4314,0.901 0.8538,1.6129 1.268,2.1364 0.4325,0.5164 0.8758,0.8368 1.3288,0.9616 0.4784,0.136 1.0153,0.09 1.6104,-0.1384 0.5951,-0.2283 1.0154,-0.5496 1.2615,-0.964 0.2717,-0.4031 0.3863,-0.9376 0.3441,-1.6036 -0.024,-0.6734 -0.1867,-1.485 -0.4876,-2.4361 -0.2822,-0.9577 -0.68,-2.1058 -1.1938,-3.4442 -0.5138,-1.3385 -0.9899,-2.4671 -1.4285,-3.3864 -0.4125,-0.9081 -0.8345,-1.6205 -1.2677,-2.1366 -0.407,-0.5047 -0.8497,-0.8252 -1.3288,-0.9617 -0.4529,-0.1243 -0.9765,-0.072 -1.5716,0.1558 -0.5951,0.2285 -1.0283,0.544 -1.2999,0.9466 -0.2459,0.4147 -0.3608,0.9494 -0.3441,1.6038 0.043,0.6661 0.2047,1.4779 0.4872,2.4361 0.3081,0.9693 0.7188,2.1232 1.2326,3.4616 z m -4.0147,1.5411 c -0.5852,-1.5242 -1.0555,-2.9435 -1.4104,-4.2573 -0.336,-1.3211 -0.4472,-2.5258 -0.3319,-3.6149 0.1339,-1.0965 0.5535,-2.0577 1.2604,-2.8829 0.707,-0.8255 1.8134,-1.5272 3.3188,-2.1054 1.5053,-0.5776 2.7973,-0.7965 3.8746,-0.656 1.0775,0.1404 2.0238,0.5772 2.8379,1.3096 0.8331,0.7255 1.557,1.6947 2.1721,2.9088 0.6338,1.2068 1.2435,2.5723 1.8288,4.0967 0.578,1.5055 1.035,2.9189 1.3713,4.24 0.3624,1.332 0.4767,2.5465 0.343,3.6429 -0.1149,1.0893 -0.5222,2.0561 -1.2217,2.9003 -0.6926,0.8628 -1.7916,1.5835 -3.297,2.1613 -1.5056,0.578 -2.8042,0.7779 -3.8967,0.6001 -1.0847,-0.1595 -2.0432,-0.6019 -2.8763,-1.3271 -0.8147,-0.7325 -1.542,-1.7115 -2.183,-2.9365 -0.6155,-1.2141 -1.2122,-2.574 -1.7899,-4.0796 z m 0.2414,11.2144 -13.0906,3.7536 -0.9714,-3.3874 4.4785,-1.2841 -4.9059,-17.1095 4.1337,-1.1853 4.906,17.1094 4.4783,-1.2841 z m -28.8995,-7.9305 -4.2215,0.8205 -0.1652,-0.8505 c -0.3761,-1.9347 -0.1564,-3.5185 0.6583,-4.7522 0.8347,-1.2374 2.4441,-2.0868 4.8284,-2.5503 2.2871,-0.4443 4.1619,-0.2923 5.6262,0.4574 1.4873,0.7658 2.4458,2.2523 2.8749,4.4608 0.1254,0.6451 0.1809,1.2428 0.1662,1.7935 -0.014,0.5502 -0.1366,1.0712 -0.3658,1.5618 -0.2054,0.5066 -0.5268,0.9946 -0.9627,1.4647 -0.4321,0.4896 -1.015,0.9883 -1.7474,1.4961 l -2.9807,2.0392 c -0.8266,0.5466 -1.3352,1.0609 -1.5253,1.544 -0.186,0.5026 -0.2167,1.0771 -0.091,1.7216 0.061,0.3125 0.1486,0.6103 0.2642,0.8918 0.1354,0.2779 0.3119,0.5071 0.5294,0.6883 0.2408,0.1963 0.5311,0.3327 0.8706,0.4087 0.3394,0.076 0.7432,0.069 1.2125,-0.023 0.8208,-0.1595 1.3543,-0.5474 1.5995,-1.1629 0.2489,-0.5962 0.2771,-1.3926 0.083,-2.3893 l 4.0456,-0.7862 0.114,0.5864 c 0.1938,0.9966 0.1924,1.8794 0,2.647 -0.1721,0.7842 -0.5071,1.458 -1.0062,2.0215 -0.4758,0.5791 -1.0949,1.0444 -1.8587,1.3955 -0.7399,0.3667 -1.5791,0.6416 -2.5168,0.8242 -2.013,0.3911 -3.6951,0.1907 -5.0458,-0.6013 -1.3502,-0.7925 -2.2272,-2.2244 -2.6298,-4.2962 -0.167,-0.8596 -0.2077,-1.6428 -0.122,-2.3493 0.089,-0.6862 0.3098,-1.3274 0.6607,-1.9231 0.3737,-0.5801 0.8667,-1.1219 1.4784,-1.6261 0.6123,-0.5043 1.3567,-1.0042 2.234,-1.4992 0.658,-0.3713 1.1986,-0.7196 1.6223,-1.0453 0.4465,-0.3101 0.7902,-0.6302 1.03,-0.9609 0.2399,-0.3309 0.3846,-0.6835 0.4335,-1.0579 0.072,-0.3589 0.062,-0.7726 -0.029,-1.2418 -0.171,-0.8793 -0.5618,-1.483 -1.1731,-1.8103 -0.5879,-0.3115 -1.2044,-0.4047 -1.8495,-0.2793 -0.5471,0.1062 -0.9912,0.2739 -1.3322,0.5022 -0.321,0.225 -0.563,0.4948 -0.7242,0.8103 -0.1623,0.3156 -0.2442,0.676 -0.2463,1.0822 0,0.4256 0.05,0.883 0.1446,1.3714 l 0.1197,0.6157 z m -4.9005,15.7706 -11.8273,1.4523 -2.5989,-21.1643 12.1242,-1.4886 0.4294,3.4976 -7.8557,0.9647 0.6987,5.6914 7.1145,-0.8736 0.4295,3.4976 -7.1142,0.8735 0.6114,4.98 7.5589,-0.9282 z m -21.0166,-5.1268 4.2945,-0.2251 c 0.04,0.7754 0.024,1.6036 -0.049,2.4849 -0.053,0.8999 -0.2778,1.739 -0.6757,2.5173 -0.3967,0.7986 -1.0295,1.4695 -1.8979,2.0135 -0.8488,0.5432 -2.0386,0.8547 -3.5693,0.9348 -1.6105,0.085 -2.9074,-0.127 -3.8914,-0.6333 -0.9827,-0.4871 -1.7572,-1.2039 -2.3254,-2.1511 -0.5485,-0.9483 -0.9375,-2.1043 -1.1687,-3.4676 -0.2101,-1.3447 -0.3575,-2.8222 -0.4421,-4.4327 -0.085,-1.6306 -0.094,-3.1254 -0.025,-4.4849 0.088,-1.3602 0.3554,-2.5401 0.8015,-3.5405 0.4659,-1.0013 1.1622,-1.7859 2.0894,-2.3523 0.9277,-0.5668 2.1967,-0.8922 3.807,-0.9768 1.4119,-0.074 2.5663,0.085 3.464,0.4757 0.9174,0.3909 1.6355,0.9609 2.1531,1.7114 0.5374,0.7494 0.9231,1.6366 1.156,2.661 0.2336,1.0246 0.3802,2.1133 0.4407,3.2666 l -4.2946,0.2251 c -0.06,-1.1532 -0.1792,-2.0843 -0.356,-2.7928 -0.1757,-0.6886 -0.393,-1.2252 -0.6525,-1.6105 -0.2581,-0.3651 -0.5604,-0.6085 -0.9052,-0.73 -0.3247,-0.1026 -0.6757,-0.144 -1.0535,-0.1241 -0.4572,0.024 -0.8602,0.1345 -1.2083,0.3325 -0.3279,0.2167 -0.5968,0.5995 -0.8073,1.1485 -0.1894,0.5683 -0.3182,1.3529 -0.3852,2.3529 -0.047,0.9995 -0.029,2.3045 0.055,3.9145 0.079,1.5114 0.186,2.7816 0.3199,3.8112 0.1344,1.05 0.318,1.8877 0.5502,2.5136 0.2329,0.6453 0.526,1.0987 0.879,1.3594 0.3733,0.2793 0.8283,0.405 1.3653,0.377 0.9741,-0.051 1.6212,-0.4441 1.9418,-1.1783 0.3415,-0.716 0.4714,-1.8491 0.3901,-3.3999 z m -23.2878,7.5276 -4.9545,-0.1728 0.7441,-21.3102 3.9398,0.1376 -0.521,14.9231 h 0.06 l 5.774,-14.7399 4.8948,0.1711 -0.744,21.31 -3.9396,-0.1377 0.5097,-14.5947 h -0.06 l -5.7033,14.4134 z m -18.7159,-12.3217 c -0.1748,1.4228 -0.293,2.632 -0.355,3.6272 -0.042,0.9978 0,1.8249 0.1168,2.4816 0.1394,0.659 0.3803,1.1499 0.7217,1.4729 0.3585,0.3448 0.8541,0.5562 1.487,0.6338 0.6323,0.078 1.1544,-0.01 1.5661,-0.259 0.4293,-0.228 0.7815,-0.6462 1.0567,-1.2544 0.2954,-0.6057 0.5327,-1.3989 0.7132,-2.3799 0.2005,-0.978 0.3883,-2.1784 0.5631,-3.6015 0.1746,-1.423 0.2841,-2.6431 0.3286,-3.6606 0.062,-0.9957 0.024,-1.8226 -0.1163,-2.4818 -0.1225,-0.6364 -0.3629,-1.1274 -0.7217,-1.4728 -0.3415,-0.3225 -0.8285,-0.5228 -1.4608,-0.6003 -0.6327,-0.078 -1.1634,0 -1.5923,0.2255 -0.4118,0.2506 -0.7644,0.6688 -1.0566,1.2545 -0.2754,0.6081 -0.5133,1.4011 -0.7138,2.3797 -0.1829,1.0004 -0.3619,2.2122 -0.5367,3.6351 z m -4.2684,-0.5242 c 0.1989,-1.6205 0.4502,-3.0943 0.7535,-4.421 0.3234,-1.3245 0.7909,-2.4401 1.4042,-3.3476 0.6326,-0.9054 1.4547,-1.5571 2.4662,-1.9538 1.0119,-0.3969 2.318,-0.4973 3.9187,-0.3008 1.6003,0.1965 2.8438,0.6099 3.7292,1.2397 0.8856,0.6299 1.5159,1.4598 1.891,2.4889 0.3949,1.0313 0.579,2.2272 0.552,3.5878 -0.01,1.3634 -0.1095,2.8551 -0.3085,4.4757 -0.1964,1.6007 -0.4565,3.0634 -0.7797,4.3878 -0.3055,1.3462 -0.7747,2.4722 -1.4074,3.3775 -0.6128,0.9079 -1.4265,1.5698 -2.4404,1.9873 -1.0165,0.4367 -2.3255,0.5569 -3.9259,0.3603 -1.6006,-0.1965 -2.8412,-0.6299 -3.7222,-1.2993 -0.8829,-0.6504 -1.5217,-1.491 -1.9165,-2.5225 -0.3755,-1.029 -0.558,-2.2348 -0.5489,-3.6176 0.027,-1.3609 0.1381,-2.8415 0.3347,-4.4424 z m -12.2609,-13.1528 11.6973,2.2736 -0.6724,3.4593 -7.4758,-1.4532 -3.3961,17.4722 -4.2214,-0.8208 z m -9.9392,5.7026 -4.4716,8.7266 0.433,-9.8088 z m -2.8916,12.9836 10.9712,-19.1356 -4.3272,-1.1595 -2.1192,4.1004 -5.4806,-1.4686 0.2151,-4.6105 -4.3269,-1.1594 -0.067,22.0575 5.1344,1.3757 z m -16.9014,-24.5675 -2.3011,5.9948 1.7289,0.6636 c 0.4459,0.1712 0.8726,0.2813 1.2801,0.3314 0.4076,0.049 0.7879,0 1.141,-0.138 0.3643,-0.1158 0.6956,-0.3407 0.9941,-0.6737 0.3101,-0.3076 0.5757,-0.7495 0.797,-1.3259 0.4424,-1.1525 0.4482,-2.0563 0.017,-2.7122 -0.4312,-0.6558 -1.1295,-1.1696 -2.0957,-1.5405 l -1.5618,-0.5995 z m -3.3714,8.7826 -2.0013,5.2136 1.4499,0.5567 c 1.004,0.3852 1.8127,0.4723 2.4277,0.2601 0.6143,-0.2119 1.1034,-0.7917 1.4672,-1.7396 0.364,-0.9484 0.364,-1.7263 7e-4,-2.3353 -0.352,-0.5828 -1.0856,-1.0885 -2.201,-1.5166 z m -7.1505,6.628 7.6416,-19.9068 6.7753,2.601 c 1.1708,0.4493 2.0861,0.9818 2.7454,1.5976 0.6782,0.6226 1.1588,1.2868 1.4421,1.9931 0.2948,0.7315 0.4095,1.4896 0.3425,2.2746 -0.067,0.7848 -0.25,1.5675 -0.5495,2.3483 -0.5139,1.338 -1.2494,2.2817 -2.2069,2.8314 -0.9571,0.5498 -2.0217,0.6848 -3.1946,0.4055 0.8758,0.7196 1.4285,1.529 1.638,2.484 0.202,0.9732 0.096,1.9988 -0.3175,3.0767 -0.3639,0.948 -0.8099,1.694 -1.3387,2.2373 -0.5283,0.5435 -1.1187,0.9144 -1.7701,1.1119 -0.652,0.1978 -1.363,0.2445 -2.1334,0.1407 -0.7522,-0.097 -1.5369,-0.302 -2.355,-0.616 z m 0.374,-11.9745 -7.6328,-3.5592 1.4893,-3.1938 7.6327,3.5592 z" /></g></g></svg>